<svg version="1.1" id="Layer_1" xmlns="http://www.w3.org/2000/svg" xmlns:xlink="http://www.w3.org/1999/xlink" x="0px" y="0px"
	 width="100%" viewBox="0 0 113 138" enable-background="new 0 0 113 138" xml:space="preserve">

<path fill="#193D30" opacity="1.000000" stroke="none" 
	d="
M48.915810,97.002045 
	C49.279736,100.383759 49.821434,103.762085 49.886101,107.149513 
	C49.902851,108.027199 48.591118,109.229126 47.608139,109.778450 
	C41.302193,113.302429 34.917854,116.686142 28.057295,120.295654 
	C27.555311,120.475349 27.134464,120.373421 27.104839,119.882141 
	C27.102816,110.508698 27.130419,101.626534 27.535456,92.815987 
	C28.933037,92.919357 29.953184,92.951096 31.201460,93.152596 
	C34.504410,95.438072 36.372601,99.919373 42.187790,98.457733 
	C40.504990,97.348999 39.461159,96.661255 38.478233,96.013641 
	C40.105221,92.916794 41.924122,93.072357 44.240063,94.739243 
	C45.624397,95.735611 47.345879,96.263550 48.915810,97.002045 
M44.001907,100.168747 
	C43.841290,99.761307 43.680676,99.353867 43.520065,98.946426 
	C43.345203,99.624245 43.170338,100.302063 43.143024,101.580742 
	C43.715187,101.771347 44.287350,101.961952 45.336708,102.792267 
	C46.615124,103.348106 47.893536,103.903946 49.171947,104.459793 
	C49.129539,103.914665 49.087128,103.369530 48.981342,102.378731 
	C48.622391,102.335587 48.263435,102.292442 47.279232,102.080399 
	C46.689548,101.837921 46.099861,101.595436 45.024765,101.096588 
	C44.684673,100.973206 44.344578,100.849823 44.001907,100.168747 
z"/>
<path fill="#1A4032" opacity="1.000000" stroke="none" 
	d="
M48.993980,96.572357 
	C47.345879,96.263550 45.624397,95.735611 44.240063,94.739243 
	C41.924122,93.072357 40.105221,92.916794 38.478233,96.013641 
	C39.461159,96.661255 40.504990,97.348999 42.187790,98.457733 
	C36.372601,99.919373 34.504410,95.438072 31.190418,92.800781 
	C29.870888,91.350746 28.790527,90.422295 27.518496,89.329109 
	C28.850622,88.252228 30.057812,87.276344 31.635000,86.294609 
	C34.946980,85.053970 37.888962,83.819176 40.967400,82.917740 
	C42.068375,84.162292 43.032898,85.073479 44.255066,86.098923 
	C45.009987,86.476616 45.507252,86.740059 46.039703,87.333908 
	C47.004826,88.407310 47.934772,89.150307 48.898613,89.935234 
	C48.932510,89.977165 49.023903,90.034416 49.023903,90.034416 
	C49.039986,92.070503 49.056068,94.106590 48.993980,96.572357 
M32.515812,91.425255 
	C32.515812,91.425255 32.569065,91.519188 32.515812,91.425255 
z"/>
<path fill="#195C43" opacity="1.000000" stroke="none" 
	d="
M69.037720,89.779968 
	C65.648132,89.716042 62.258549,89.652115 58.405296,89.119461 
	C55.634438,85.087173 53.327248,81.523621 51.017357,77.657425 
	C51.004272,76.950287 50.993896,76.545799 51.195114,76.077072 
	C51.406704,76.012833 51.841988,75.934578 52.072742,75.871048 
	C52.608784,75.671875 52.834698,75.453934 53.224854,75.089096 
	C53.797581,74.973518 54.126694,74.922523 54.720451,74.851654 
	C55.298721,74.681519 55.612343,74.531258 56.082161,74.332535 
	C56.238365,74.284065 56.565170,74.270363 56.706501,74.591721 
	C59.070946,76.922989 61.294056,78.932899 63.587151,81.050797 
	C63.766430,81.300262 63.901703,81.409615 64.242538,81.776337 
	C64.778908,82.342506 65.135696,82.619202 65.566109,83.022385 
	C65.762428,83.310951 65.918007,83.430130 66.226624,83.730194 
	C66.614258,84.157501 66.881714,84.361038 67.308105,84.817558 
	C68.000397,85.656052 68.533768,86.241562 69.147224,87.119949 
	C69.498970,87.958427 69.770630,88.504028 69.834755,89.113472 
	C69.333748,89.283348 69.137253,89.484230 69.037720,89.779968 
z"/>
<path fill="#13563D" opacity="1.000000" stroke="none" 
	d="
M25.397753,52.040527 
	C25.308371,47.679970 25.218988,43.319408 25.490086,38.492905 
	C26.226347,37.990692 26.602129,37.954426 26.988815,38.385345 
	C25.449133,45.834995 28.721891,50.966602 33.226418,55.786690 
	C35.597195,58.323551 37.921799,59.884514 41.273621,58.422722 
	C40.052540,60.586079 38.925140,62.422279 37.377953,64.197952 
	C35.299072,63.535988 33.552021,63.101978 32.004169,62.288792 
	C30.250055,61.367249 28.674459,60.105904 27.014072,58.582336 
	C26.470516,56.128426 25.934134,54.084476 25.397753,52.040527 
z"/>
<path fill="#C3E7A6" opacity="1.000000" stroke="none" 
	d="
M98.891663,34.000500 
	C99.244316,35.183273 99.596970,36.366047 99.938408,38.262207 
	C97.690987,42.341003 95.454788,45.706409 93.049194,49.300240 
	C92.541412,49.983860 92.203033,50.439056 91.577042,50.889263 
	C90.834175,50.571358 90.378914,50.258446 89.982178,49.585411 
	C91.123451,47.146164 92.206184,45.067032 93.288925,42.987900 
	C92.947609,42.481628 92.606285,41.975357 92.264969,41.469086 
	C89.820061,42.566055 87.375153,43.663021 84.589157,44.837746 
	C83.166710,45.308064 82.085350,45.700630 80.996506,45.746265 
	C80.995148,44.937016 81.001289,44.474701 81.307190,43.860054 
	C83.862350,42.170204 86.117744,40.632690 88.688881,39.055923 
	C89.979378,38.606239 90.954140,38.195816 92.245811,37.691166 
	C94.672371,36.398125 96.782013,35.199310 98.891663,34.000500 
z"/>
<path fill="#84C256" opacity="1.000000" stroke="none" 
	d="
M91.928902,37.785393 
	C90.954140,38.195816 89.979378,38.606239 88.344360,39.026520 
	C87.456062,39.023026 87.228035,39.009678 86.994171,38.626801 
	C86.623726,37.367043 86.508514,36.009510 85.854942,35.660690 
	C80.745979,32.934006 80.214478,27.460117 78.358521,23.006683 
	C79.685684,22.994225 80.646439,22.983910 81.607201,22.973593 
	C81.937981,23.156647 82.268768,23.339701 82.839462,24.080296 
	C84.173973,25.745928 85.194489,26.941355 86.377617,27.945099 
	C89.453217,30.554369 92.321083,33.237610 91.928902,37.785393 
z"/>
<path fill="#144F3A" opacity="1.000000" stroke="none" 
	d="
M51.020058,77.960068 
	C53.327248,81.523621 55.634438,85.087173 57.968655,88.973999 
	C56.603809,89.402206 55.211933,89.507133 53.399963,89.200325 
	C52.634933,88.324135 52.289997,87.859695 51.945057,87.395248 
	C51.624619,88.060196 51.304176,88.725143 50.983738,89.390091 
	C50.548172,89.526649 50.112606,89.663200 49.350471,89.917084 
	C49.023903,90.034416 48.932510,89.977165 48.899170,89.607437 
	C47.912060,88.492966 46.958290,87.748230 46.004520,87.003494 
	C45.507252,86.740059 45.009987,86.476616 44.255821,85.702538 
	C44.005009,84.133331 44.011089,83.074760 44.329239,81.963638 
	C45.094959,81.285263 45.548611,80.659431 46.344368,79.985168 
	C48.131001,79.277840 49.575527,78.618950 51.020058,77.960068 
z"/>
<path fill="#3B8658" opacity="1.000000" stroke="none" 
	d="
M97.147697,70.054260 
	C97.645432,73.788971 95.301628,75.905022 92.289825,77.602234 
	C88.582581,74.056931 85.280312,70.780655 82.309860,67.353806 
	C83.786598,66.813766 84.931503,66.424301 86.274147,66.037231 
	C86.471878,66.039635 86.868279,66.060349 86.985153,66.415573 
	C90.365952,67.516281 93.629875,68.261772 96.929413,69.275764 
	C97.025909,69.714264 97.086800,69.884262 97.147697,70.054260 
z"/>
<path fill="#2E8159" opacity="1.000000" stroke="none" 
	d="
M81.978043,67.504372 
	C85.280312,70.780655 88.582581,74.056931 91.943047,77.673630 
	C89.896980,79.344704 87.792725,80.675377 85.383659,81.619019 
	C86.122070,76.622772 83.216408,75.408218 79.655060,74.442184 
	C80.348015,71.718849 80.959221,69.380943 81.628555,67.197037 
	C81.686691,67.351044 81.978043,67.504372 81.978043,67.504372 
z"/>
<path fill="#99C964" opacity="1.000000" stroke="none" 
	d="
M92.245811,37.691166 
	C92.321083,33.237610 89.453217,30.554369 86.377617,27.945099 
	C85.194489,26.941355 84.173973,25.745928 83.048828,24.273077 
	C88.317528,27.036509 93.616776,30.164701 98.903839,33.646698 
	C96.782013,35.199310 94.672371,36.398125 92.245811,37.691166 
z"/>
<path fill="#C4EFBB" opacity="1.000000" stroke="none" 
	d="
M63.864784,15.163526 
	C64.322884,15.108698 64.780991,15.053870 65.650986,15.282936 
	C66.361038,16.051291 66.659187,16.535751 67.003036,17.356346 
	C67.693565,19.126192 68.338394,20.559910 69.039467,22.246300 
	C69.350586,22.708113 69.605469,22.917255 69.817787,23.144224 
	C69.775230,23.162052 69.784599,23.253853 69.804657,23.572395 
	C70.184395,24.655487 70.544083,25.420036 70.937027,26.387447 
	C70.970299,26.590309 71.127464,26.970232 71.141861,27.303150 
	C71.736626,28.819738 72.317009,30.003412 72.949257,31.548544 
	C74.351845,35.607075 75.702560,39.304142 76.689667,43.008438 
	C75.600670,42.976078 74.875298,42.936485 74.119171,42.544044 
	C73.665619,41.130703 73.242813,40.070206 72.769890,38.669746 
	C72.015068,36.459229 71.310371,34.588673 70.511765,32.373413 
	C69.696747,30.315777 68.975639,28.602840 68.202194,26.549301 
	C67.520897,24.777012 66.891945,23.345327 66.215012,21.550915 
	C65.399612,19.179964 64.632195,17.171743 63.864784,15.163526 
z"/>
<path fill="#2C8051" opacity="1.000000" stroke="none" 
	d="
M46.006287,22.792439 
	C46.006287,22.792439 46.178215,22.499592 46.456844,22.619602 
	C46.735474,22.739613 46.993622,23.019360 47.040443,23.372261 
	C48.486526,26.196987 49.885792,28.668810 51.147636,31.347836 
	C50.784382,31.806303 50.512749,31.989723 49.772644,32.026611 
	C44.910065,31.476208 40.470158,31.004498 36.180305,30.548731 
	C37.719086,28.854559 39.203068,27.220720 40.687050,25.586880 
	C40.687050,25.586880 40.860844,25.646286 41.115303,25.709587 
	C41.830288,25.375227 42.290817,24.977566 42.751347,24.579906 
	C42.751347,24.579906 42.784477,24.703684 43.082100,24.755507 
	C44.255241,24.135698 45.130764,23.464067 46.006287,22.792439 
z"/>
<path fill="#74B557" opacity="1.000000" stroke="none" 
	d="
M91.864655,50.894257 
	C92.203033,50.439056 92.541412,49.983860 93.390961,49.274132 
	C96.523087,47.940472 99.142822,46.428326 101.774017,48.997513 
	C101.823402,50.074066 101.872787,51.150620 101.659332,52.817001 
	C101.255249,53.935974 101.114014,54.465118 100.540962,54.996498 
	C97.733391,55.672115 95.357643,56.345501 92.745216,56.945141 
	C92.217819,56.680908 92.027229,56.417854 91.970146,55.650291 
	C91.957214,53.776985 91.910934,52.335621 91.864655,50.894257 
z"/>
<path fill="#123323" opacity="1.000000" stroke="none" 
	d="
M25.292385,52.495697 
	C25.934134,54.084476 26.470516,56.128426 27.004723,59.041397 
	C27.023674,63.276241 27.044798,66.642067 27.050901,70.448288 
	C27.035879,73.587135 27.035879,76.285599 27.035879,79.328873 
	C28.016199,78.676208 28.530924,78.333527 29.003281,78.340599 
	C27.728712,79.772736 26.496510,80.855125 25.264309,81.937508 
	C25.238546,72.275291 25.212782,62.613079 25.292385,52.495697 
z"/>
<path fill="#397D5F" opacity="1.000000" stroke="none" 
	d="
M40.344185,25.650778 
	C39.203068,27.220720 37.719086,28.854559 36.180305,30.548731 
	C40.470158,31.004498 44.910065,31.476208 49.708294,32.257584 
	C50.066616,32.567245 49.971138,33.038223 49.506775,33.003090 
	C42.697338,33.037170 36.352264,33.106380 29.757305,33.021782 
	C29.453409,32.329582 29.399397,31.791195 29.345385,31.252806 
	C29.827869,31.057348 30.310354,30.861893 31.294971,30.461206 
	C32.274952,29.897417 32.752800,29.538857 33.230648,29.180298 
	C35.487537,28.025091 37.744427,26.869884 40.344185,25.650778 
z"/>
<path fill="#65A95C" opacity="1.000000" stroke="none" 
	d="
M92.981888,57.018890 
	C95.357643,56.345501 97.733391,55.672115 100.745094,55.012352 
	C101.381042,55.025978 101.789688,55.038986 101.789688,55.038986 
	C101.827248,57.719067 101.864815,60.399147 101.445175,63.531605 
	C99.944244,64.033363 98.900520,64.082741 97.867630,64.127434 
	C97.878456,64.122749 97.879326,64.106339 97.910324,63.740669 
	C97.248940,62.617878 96.556557,61.860760 95.870682,61.060547 
	C95.877190,61.017456 95.895241,61.100502 95.922646,60.730785 
	C95.235931,59.599091 94.521812,58.837116 93.616264,57.946732 
	C93.206215,57.591175 93.058563,57.324699 92.981888,57.018890 
z"/>
<path fill="#071F14" opacity="1.000000" stroke="none" 
	d="
M27.158024,92.744362 
	C27.130419,101.626534 27.102816,110.508698 26.746977,120.051453 
	C25.950876,120.478760 25.483013,120.245499 25.015150,120.012230 
	C25.055517,110.982864 25.095884,101.953506 25.413021,92.288658 
	C26.179203,92.016899 26.668613,92.380630 27.158024,92.744362 
z"/>
<path fill="#227854" opacity="1.000000" stroke="none" 
	d="
M79.573318,74.827599 
	C83.216408,75.408218 86.122070,76.622772 85.037010,81.571381 
	C83.947426,82.635101 82.899681,83.359428 81.170364,83.947014 
	C79.511200,82.467453 78.533600,81.124649 77.593712,79.781342 
	C77.631424,79.780830 77.694809,79.819717 78.026146,79.653648 
	C78.517120,78.540665 78.676765,77.593750 78.869171,76.397781 
	C79.125732,75.708359 79.349525,75.267982 79.573318,74.827599 
z"/>
<path fill="#3C765E" opacity="1.000000" stroke="none" 
	d="
M77.556000,79.781845 
	C78.533600,81.124649 79.511200,82.467453 80.833160,83.963852 
	C79.715210,86.088531 78.049721,87.943169 76.837807,90.057762 
	C74.979668,93.299919 72.989273,93.475304 69.221573,90.078300 
	C69.137253,89.484230 69.333748,89.283348 70.159027,89.261566 
	C71.911156,89.407013 73.131485,89.468224 74.351807,89.529434 
	C74.234238,88.349380 74.116669,87.169327 73.993393,85.748291 
	C73.987686,85.507309 73.994751,85.024963 74.339905,85.010132 
	C75.642029,83.257484 76.599014,81.519669 77.556000,79.781845 
z"/>
<path fill="#549661" opacity="1.000000" stroke="none" 
	d="
M49.909668,20.700598 
	C53.326866,18.797550 56.744068,16.894505 60.374580,15.355347 
	C59.186863,18.862064 57.785831,22.004892 56.052528,24.954929 
	C53.820213,23.837803 51.920170,22.913469 49.992630,21.666990 
	C49.946644,21.130096 49.928158,20.915348 49.909668,20.700598 
z"/>
<path fill="#8DBC67" opacity="1.000000" stroke="none" 
	d="
M101.861298,48.549736 
	C99.142822,46.428326 96.523087,47.940472 93.560364,49.045712 
	C95.454788,45.706409 97.690987,42.341003 99.976151,38.655033 
	C100.675789,39.473209 101.714188,40.555252 101.890839,41.763313 
	C102.193741,43.834709 101.958099,45.984867 101.861298,48.549736 
z"/>
<path fill="#40614E" opacity="1.000000" stroke="none" 
	d="
M25.128735,82.294228 
	C26.496510,80.855125 27.728712,79.772736 29.275379,78.152901 
	C30.744833,75.446526 31.899822,73.277603 33.394310,71.072502 
	C34.549660,71.334274 35.365513,71.632233 36.130798,72.184692 
	C36.046467,72.608849 36.012703,72.778503 35.699558,73.171646 
	C32.068333,76.816757 29.640472,80.719788 28.732784,85.713951 
	C27.286171,85.536743 26.173883,85.234604 25.061596,84.932457 
	C25.038784,84.171951 25.015970,83.411453 25.128735,82.294228 
z"/>
<path fill="#B3DCB4" opacity="1.000000" stroke="none" 
	d="
M56.384804,25.147722 
	C57.785831,22.004892 59.186863,18.862064 60.739246,15.414078 
	C61.394627,15.116798 61.898659,15.124677 62.697250,15.504832 
	C62.353687,17.590124 61.715561,19.303139 60.938904,21.309830 
	C60.461315,22.613234 60.122257,23.622961 59.558929,24.896664 
	C58.488674,27.051891 57.642689,28.943148 56.513401,30.819382 
	C55.773556,30.498039 55.317013,30.191719 54.936134,29.539009 
	C55.469467,27.844318 55.927135,26.496021 56.384804,25.147722 
z"/>
<path fill="#BED3C8" opacity="1.000000" stroke="none" 
	d="
M25.076229,85.288475 
	C26.173883,85.234604 27.286171,85.536743 28.945793,85.709450 
	C29.740032,85.427689 30.007792,85.336761 30.539490,85.554626 
	C30.943384,85.968170 31.104193,86.134315 31.265001,86.300461 
	C30.057812,87.276344 28.850622,88.252228 27.518496,89.329109 
	C28.790527,90.422295 29.870888,91.350746 30.962290,92.631020 
	C29.953184,92.951096 28.933037,92.919357 27.535458,92.815987 
	C26.668613,92.380630 26.179203,92.016899 25.356636,91.822357 
	C25.045940,89.875862 25.068399,87.760178 25.076229,85.288475 
z"/>
<path fill="#C1E6BF" opacity="1.000000" stroke="none" 
	d="
M92.745216,56.945145 
	C93.058563,57.324699 93.206215,57.591175 93.689575,58.255989 
	C94.601280,59.495941 95.248260,60.298222 95.895241,61.100502 
	C95.895241,61.100502 95.877190,61.017456 95.917702,61.370991 
	C96.598579,62.518463 97.238953,63.312401 97.879326,64.106339 
	C97.879326,64.106339 97.878456,64.122749 97.948074,64.486816 
	C98.399200,66.520454 98.780701,68.190010 99.162209,69.859573 
	C98.715179,69.909401 98.268150,69.959229 97.484406,70.031662 
	C97.086800,69.884262 97.025909,69.714264 97.198273,69.136040 
	C95.701775,66.088455 93.972031,63.449100 92.231400,60.828201 
	C92.220512,60.846657 92.191597,60.828693 92.142410,60.542698 
	C91.713852,59.842922 91.334473,59.429142 90.911255,58.730309 
	C90.765167,58.075832 90.662933,57.706406 90.741608,57.075645 
	C91.260612,56.570282 91.598701,56.326256 91.936790,56.082230 
	C92.027229,56.417854 92.217819,56.680908 92.745216,56.945145 
z"/>
<path fill="#7FB06C" opacity="1.000000" stroke="none" 
	d="
M81.419891,22.730095 
	C80.646439,22.983910 79.685684,22.994225 78.011597,22.961950 
	C75.203720,21.940395 73.109169,20.961430 71.033249,19.547495 
	C71.130768,18.535265 71.209656,17.958004 71.288544,17.380743 
	C74.603226,19.082693 77.917908,20.784645 81.419891,22.730095 
z"/>
<path fill="#73A071" opacity="1.000000" stroke="none" 
	d="
M99.559372,69.883499 
	C98.780701,68.190010 98.399200,66.520454 97.937248,64.491501 
	C98.900520,64.082741 99.944244,64.033363 101.377556,63.973568 
	C101.255287,65.972504 104.003609,68.974899 99.559372,69.883499 
z"/>
<path fill="#BED3C8" opacity="1.000000" stroke="none" 
	d="
M28.978191,31.233875 
	C29.399397,31.791195 29.453409,32.329582 29.753242,33.389305 
	C29.994146,34.892418 29.989231,35.874203 29.729652,36.950073 
	C29.306353,37.109875 29.137712,37.175583 28.654226,37.170570 
	C27.910566,37.128330 27.481752,37.156803 26.728844,37.105206 
	C25.960871,37.054230 25.516991,37.083328 25.073112,37.112423 
	C26.252407,35.146595 27.431704,33.180767 28.978191,31.233875 
z"/>
<path fill="#63A065" opacity="1.000000" stroke="none" 
	d="
M61.077431,21.016151 
	C61.715561,19.303139 62.353687,17.590124 63.073936,15.546459 
	C63.156059,15.215811 63.503689,15.104413 63.684235,15.133969 
	C64.632195,17.171743 65.399612,19.179964 65.829803,21.542049 
	C64.020866,21.602663 62.549149,21.309408 61.077431,21.016151 
z"/>
<path fill="#6EAF5C" opacity="1.000000" stroke="none" 
	d="
M71.171555,17.258614 
	C71.209656,17.958004 71.130768,18.535265 71.028610,19.924561 
	C71.004890,21.489815 71.004433,22.243031 71.001862,22.998268 
	C70.999756,23.000286 70.995728,23.004515 70.688629,23.045876 
	C70.182549,23.142775 69.983574,23.198313 69.784599,23.253853 
	C69.784599,23.253853 69.775230,23.162052 69.751724,22.901836 
	C69.479889,22.425621 69.231552,22.209623 68.983223,21.993626 
	C68.338394,20.559910 67.693565,19.126192 67.383087,17.346783 
	C68.722725,17.010937 69.728012,17.020786 70.733307,17.030634 
	C70.733307,17.030634 71.054565,17.136484 71.171555,17.258614 
z"/>
<path fill="#7FB06C" opacity="1.000000" stroke="none" 
	d="
M70.512489,16.789942 
	C69.728012,17.020786 68.722725,17.010937 67.337387,17.010651 
	C66.659187,16.535751 66.361038,16.051291 65.997330,15.281806 
	C67.385063,15.514273 68.838371,16.031761 70.512489,16.789942 
z"/>
<path fill="#174F39" opacity="1.000000" stroke="none" 
	d="
M51.318420,89.502670 
	C51.304176,88.725143 51.624619,88.060196 51.945057,87.395248 
	C52.289997,87.859695 52.634933,88.324135 52.998459,89.070465 
	C52.562397,89.439987 52.107750,89.527618 51.318420,89.502670 
z"/>
<path fill="#BED3C8" opacity="1.000000" stroke="none" 
	d="
M24.793736,120.163208 
	C25.483013,120.245499 25.950876,120.478760 26.776602,120.542725 
	C27.134464,120.373421 27.555311,120.475349 27.764118,120.532227 
	C26.839392,120.497475 25.705858,120.405830 24.793736,120.163208 
z"/>
<path fill="#397D5F" opacity="1.000000" stroke="none" 
	d="
M49.589638,20.764324 
	C49.928158,20.915348 49.946644,21.130096 49.695415,21.795280 
	C48.615005,22.503599 47.804314,22.761478 46.993622,23.019360 
	C46.993622,23.019360 46.735474,22.739613 46.623112,22.585192 
	C47.430370,21.896530 48.349991,21.362291 49.589638,20.764324 
z"/>
<path fill="#397D5F" opacity="1.000000" stroke="none" 
	d="
M45.676392,22.823780 
	C45.130764,23.464067 44.255241,24.135698 43.026524,24.723633 
	C43.564381,24.045002 44.455441,23.450064 45.676392,22.823780 
z"/>
<path fill="#8DBC67" opacity="1.000000" stroke="none" 
	d="
M101.875473,54.707775 
	C101.789688,55.038986 101.381042,55.025978 101.176910,55.010120 
	C101.114014,54.465118 101.255249,53.935974 101.597794,53.217705 
	C101.853157,53.477909 101.907204,53.927238 101.875473,54.707775 
z"/>
<path fill="#40614E" opacity="1.000000" stroke="none" 
	d="
M25.056805,37.361679 
	C25.516991,37.083328 25.960871,37.054230 26.705936,37.287994 
	C27.007126,37.550858 26.977913,37.918156 26.977913,37.918159 
	C26.602129,37.954426 26.226347,37.990692 25.568363,38.036446 
	C25.286165,38.045925 25.040497,37.610931 25.056805,37.361679 
z"/>
<path fill="#397D5F" opacity="1.000000" stroke="none" 
	d="
M42.448723,24.600780 
	C42.290817,24.977566 41.830288,25.375227 41.031776,25.688919 
	C41.177898,25.277187 41.662003,24.949421 42.448723,24.600780 
z"/>
<path fill="#BED3C8" opacity="1.000000" stroke="none" 
	d="
M32.900566,29.152760 
	C32.752800,29.538857 32.274952,29.897417 31.491005,30.288992 
	C31.646763,29.923077 32.108624,29.524149 32.900566,29.152760 
z"/>
<path fill="#F3F4EB" opacity="1.000000" stroke="none" 
	d="
M49.044720,102.824402 
	C49.087128,103.369530 49.129539,103.914665 49.171947,104.459793 
	C47.893536,103.903946 46.615124,103.348106 45.271317,102.281067 
	C45.307339,101.630905 45.408756,101.491928 45.510174,101.352951 
	C46.099861,101.595436 46.689548,101.837921 47.700394,102.387177 
	C48.121555,102.693947 48.559963,102.923195 48.559963,102.923195 
	C48.559963,102.923195 49.044720,102.824402 49.044720,102.824402 
z"/>
<path fill="#1A4032" opacity="1.000000" stroke="none" 
	d="
M42.995468,100.979874 
	C43.170338,100.302063 43.345203,99.624245 43.520065,98.946426 
	C43.680676,99.353867 43.841290,99.761307 43.747917,100.498856 
	C43.327774,100.879265 43.161621,100.929573 42.995468,100.979874 
z"/>
<path fill="#F3F4EB" opacity="1.000000" stroke="none" 
	d="
M43.069244,101.280304 
	C43.161621,100.929573 43.327774,100.879265 43.749207,100.777695 
	C44.344578,100.849823 44.684673,100.973206 45.267471,101.224777 
	C45.408756,101.491928 45.307339,101.630905 45.032719,101.961212 
	C44.287350,101.961952 43.715187,101.771347 43.069244,101.280304 
z"/>
<path fill="#1A4032" opacity="1.000000" stroke="none" 
	d="
M49.013031,102.601562 
	C49.044720,102.824402 48.559963,102.923195 48.559963,102.923195 
	C48.559963,102.923195 48.121555,102.693947 48.013020,102.471619 
	C48.263435,102.292442 48.622391,102.335587 49.013031,102.601562 
z"/>
<path fill="#BED3C8" opacity="1.000000" stroke="none" 
	d="
M40.830948,82.584381 
	C37.888962,83.819176 34.946980,85.053970 31.634998,86.294601 
	C31.104193,86.134315 30.943384,85.968170 30.817518,85.356300 
	C34.767094,82.667824 38.681725,80.425056 42.716408,78.204445 
	C42.836456,78.226601 42.997131,78.042770 43.320728,78.082100 
	C44.092133,78.744141 44.539940,79.366844 44.773308,79.997063 
	C44.263409,80.060852 44.024456,80.208549 43.511692,80.577438 
	C42.601612,81.101517 42.021843,81.495811 41.276443,81.937134 
	C40.905170,82.131874 40.811886,82.331947 40.830948,82.584381 
z"/>
<path fill="#174F39" opacity="1.000000" stroke="none" 
	d="
M40.967400,82.917747 
	C40.811886,82.331947 40.905170,82.131874 41.703186,81.962418 
	C42.862606,81.959412 43.429653,81.978149 44.000359,82.000366 
	C44.004017,82.003853 44.017178,82.016197 44.017174,82.016197 
	C44.011089,83.074760 44.005009,84.133331 43.998169,85.588280 
	C43.032898,85.073479 42.068375,84.162292 40.967400,82.917747 
z"/>
<path fill="#174F39" opacity="1.000000" stroke="none" 
	d="
M46.039703,87.333908 
	C46.958290,87.748230 47.912060,88.492966 48.865273,89.565506 
	C47.934772,89.150307 47.004826,88.407310 46.039703,87.333908 
z"/>
<path fill="#193D30" opacity="1.000000" stroke="none" 
	d="
M32.542439,91.472221 
	C32.569065,91.519188 32.515812,91.425255 32.542439,91.472221 
z"/>
<path fill="#EDF4E8" opacity="1.000000" stroke="none" 
	d="
M54.455803,74.871536 
	C54.126694,74.922523 53.797581,74.973518 52.954720,75.039215 
	C52.241310,75.347473 52.041649,75.641022 51.841988,75.934578 
	C51.841988,75.934578 51.406704,76.012833 50.858650,76.016342 
	C49.856907,76.020058 49.403217,76.020264 49.041962,75.663948 
	C49.334019,73.997215 49.533638,72.687004 49.845299,70.903046 
	C49.928631,66.626060 49.899929,62.822815 49.961514,58.760643 
	C49.992184,58.328899 49.932560,58.156086 49.917839,57.558983 
	C49.956539,55.427876 49.950340,53.721054 50.251587,51.840820 
	C51.415874,49.801636 52.272720,47.935863 53.442085,45.952835 
	C55.492947,44.546955 57.231289,43.258339 59.035957,42.122417 
	C59.209290,42.309113 59.316296,42.343109 59.423302,42.377110 
	C59.257805,42.261818 59.092304,42.146526 58.966103,41.715836 
	C59.107803,40.991543 59.210205,40.582653 59.602539,40.176254 
	C60.265194,40.082760 60.637905,39.986767 61.377907,39.954376 
	C65.805931,42.101017 69.866669,44.184055 73.891678,46.602219 
	C74.853630,48.300705 75.851311,49.664066 76.839951,51.405457 
	C76.914948,52.531532 76.998993,53.279579 77.003769,54.453171 
	C78.093605,60.377892 75.332939,63.631634 70.444885,65.873428 
	C69.549515,66.360580 68.890640,66.779251 67.853882,67.261902 
	C66.651863,67.913788 65.827728,68.501678 64.646736,69.071991 
	C62.238895,70.696793 60.187904,72.339165 57.739738,74.030685 
	C57.083431,74.143341 56.824299,74.206856 56.565170,74.270363 
	C56.565170,74.270363 56.238365,74.284065 55.803211,74.228775 
	C55.063972,74.406166 54.759888,74.638847 54.455803,74.871536 
z"/>
<path fill="#244636" opacity="1.000000" stroke="none" 
	d="
M48.949524,76.020462 
	C49.403217,76.020264 49.856907,76.020058 50.647060,76.080582 
	C50.993896,76.545799 51.004272,76.950287 51.017353,77.657425 
	C49.575527,78.618950 48.131001,79.277840 46.090820,79.972191 
	C45.326023,80.001617 45.156887,79.995583 44.987747,79.989555 
	C44.539940,79.366844 44.092133,78.744141 43.456322,77.798874 
	C44.182610,76.651398 45.096909,75.826485 46.254166,74.994995 
	C46.497124,74.988419 46.983105,74.977615 47.152481,75.217270 
	C47.864414,75.644775 48.406971,75.832626 48.949524,76.020462 
z"/>
<path fill="#227555" opacity="1.000000" stroke="none" 
	d="
M73.999092,85.989273 
	C74.116669,87.169327 74.234238,88.349380 74.351807,89.529434 
	C73.131485,89.468224 71.911156,89.407013 70.366562,89.197723 
	C69.770630,88.504028 69.498970,87.958427 69.383667,87.048759 
	C69.783600,86.462624 70.018959,86.232155 70.620911,85.995232 
	C71.996841,85.994537 72.997971,85.991905 73.999092,85.989273 
z"/>
<path fill="#B8E3D1" opacity="1.000000" stroke="none" 
	d="
M56.706501,74.591721 
	C56.824299,74.206856 57.083431,74.143341 58.035019,74.119766 
	C59.686836,74.890984 60.646191,75.622261 61.616219,76.367020 
	C61.626896,76.380493 61.612526,76.414345 61.756462,76.685768 
	C62.676140,77.895081 63.451881,78.832977 64.025009,80.048698 
	C63.720657,80.531952 63.618912,80.737381 63.517166,80.942802 
	C61.294056,78.932899 59.070946,76.922989 56.706501,74.591721 
z"/>
<path fill="#B8E3D1" opacity="1.000000" stroke="none" 
	d="
M70.246101,85.993294 
	C70.018959,86.232155 69.783600,86.462624 69.303574,86.755875 
	C68.533768,86.241562 68.000397,85.656052 67.599945,84.617401 
	C67.911873,84.010567 68.090881,83.856895 68.555534,83.837158 
	C69.309494,84.645172 69.777794,85.319229 70.246101,85.993294 
z"/>
<path fill="#B8E3D1" opacity="1.000000" stroke="none" 
	d="
M65.492493,82.895889 
	C65.135696,82.619202 64.778908,82.342506 64.572029,81.598923 
	C64.920685,80.981216 65.119431,80.830406 65.532784,80.796822 
	C66.008034,81.128853 66.183739,81.398911 66.058632,82.003525 
	C65.725990,82.487198 65.609245,82.691544 65.492493,82.895889 
z"/>
<path fill="#B8E3D1" opacity="1.000000" stroke="none" 
	d="
M67.441017,84.364410 
	C66.881714,84.361038 66.614258,84.157501 66.548996,83.538162 
	C66.947548,82.967346 67.143898,82.812347 67.550034,82.776939 
	C68.014503,83.111900 68.184525,83.380791 68.269882,83.703217 
	C68.090881,83.856895 67.911873,84.010567 67.441017,84.364410 
z"/>
<path fill="#B8E3D1" opacity="1.000000" stroke="none" 
	d="
M66.428818,83.314392 
	C65.918007,83.430130 65.762428,83.310951 65.566109,83.022385 
	C65.609245,82.691544 65.725990,82.487198 66.283493,82.099197 
	C67.012695,82.093796 67.218033,82.341057 67.340248,82.657341 
	C67.143898,82.812347 66.947548,82.967346 66.428818,83.314392 
z"/>
<path fill="#244636" opacity="1.000000" stroke="none" 
	d="
M54.720451,74.851654 
	C54.759888,74.638847 55.063972,74.406166 55.647011,74.277237 
	C55.612343,74.531258 55.298721,74.681519 54.720451,74.851654 
z"/>
<path fill="#B8E3D1" opacity="1.000000" stroke="none" 
	d="
M64.392456,81.309433 
	C63.901703,81.409615 63.766430,81.300262 63.587151,81.050797 
	C63.618912,80.737381 63.720657,80.531952 64.251877,80.140900 
	C64.980042,80.120728 65.192314,80.362167 65.318169,80.679588 
	C65.119431,80.830406 64.920685,80.981216 64.392456,81.309433 
z"/>
<path fill="#244636" opacity="1.000000" stroke="none" 
	d="
M52.072742,75.871048 
	C52.041649,75.641022 52.241310,75.347473 52.711102,75.103806 
	C52.834698,75.453934 52.608784,75.671875 52.072742,75.871048 
z"/>
<path fill="#146245" opacity="1.000000" stroke="none" 
	d="
M26.988815,38.385342 
	C26.977913,37.918156 27.007126,37.550858 27.030033,37.368065 
	C27.481752,37.156803 27.910566,37.128330 28.707157,37.473274 
	C29.933195,38.237904 30.791454,38.629116 31.817581,39.323181 
	C33.136497,40.356407 34.287544,41.086781 35.030708,41.869102 
	C33.792019,43.198479 32.123165,44.592709 32.281982,45.732220 
	C32.837135,49.715546 38.575016,54.308197 43.066780,55.294312 
	C42.472240,56.430641 41.919769,57.263107 41.367294,58.095573 
	C37.921799,59.884514 35.597195,58.323551 33.226418,55.786690 
	C28.721891,50.966602 25.449133,45.834995 26.988815,38.385342 
z"/>
<path fill="#124D37" opacity="1.000000" stroke="none" 
	d="
M27.065924,70.007896 
	C27.044798,66.642067 27.023674,63.276241 27.011898,59.451355 
	C28.674459,60.105904 30.250055,61.367249 32.004169,62.288792 
	C33.552021,63.101978 35.299072,63.535988 37.254524,64.528320 
	C37.034622,65.944687 36.518368,66.970161 35.684387,68.026489 
	C34.582493,68.378372 33.798325,68.699387 32.808636,68.782722 
	C30.757385,69.032669 28.911655,69.520287 27.065924,70.007896 
z"/>
<path fill="#B5DDCD" opacity="1.000000" stroke="none" 
	d="
M36.002113,67.995628 
	C36.518368,66.970161 37.034622,65.944687 37.674309,64.588852 
	C38.925140,62.422279 40.052540,60.586079 41.273621,58.422722 
	C41.919769,57.263107 42.472240,56.430641 43.298519,55.128990 
	C44.031338,54.060215 44.490349,53.460632 45.302444,52.887932 
	C45.890186,52.940567 46.124847,52.966320 46.340782,53.371658 
	C44.457539,57.262032 42.593029,60.772823 40.481655,64.487228 
	C39.776505,65.631386 39.318218,66.571922 38.524940,67.675919 
	C37.461792,67.888962 36.733639,67.938545 36.002739,67.992775 
	C35.999996,67.997421 36.002113,67.995628 36.002113,67.995628 
z"/>
<path fill="#6EAF5C" opacity="1.000000" stroke="none" 
	d="
M77.053276,43.001213 
	C75.702560,39.304142 74.351845,35.607075 72.982986,31.147503 
	C72.975441,29.584866 72.986038,28.784731 73.335892,28.047516 
	C75.217117,29.900993 77.178841,31.480198 78.209908,33.527988 
	C80.105598,37.292976 82.515106,39.659054 87.000000,38.996326 
	C87.228035,39.009678 87.456062,39.023026 88.028625,39.065773 
	C86.117744,40.632690 83.862350,42.170204 80.987900,43.726269 
	C79.263657,43.496948 78.158470,43.249081 77.053276,43.001213 
z"/>
<path fill="#91CC75" opacity="1.000000" stroke="none" 
	d="
M76.689667,43.008438 
	C78.158470,43.249081 79.263657,43.496948 80.688141,43.878601 
	C81.001289,44.474701 80.995148,44.937016 81.010063,46.107216 
	C81.014748,47.540188 80.998390,48.265282 80.691864,49.143280 
	C79.217453,49.873268 78.033226,50.450348 76.848991,51.027428 
	C75.851311,49.664066 74.853630,48.300705 73.924652,46.181000 
	C74.045532,44.582069 74.097725,43.739479 74.149918,42.896893 
	C74.875298,42.936485 75.600670,42.976078 76.689667,43.008438 
z"/>
<path fill="#73B159" opacity="1.000000" stroke="none" 
	d="
M84.930244,44.759987 
	C87.375153,43.663021 89.820061,42.566055 92.264969,41.469086 
	C92.606285,41.975357 92.947609,42.481628 93.288925,42.987900 
	C92.206184,45.067032 91.123451,47.146164 89.642990,49.613873 
	C88.563667,50.039951 87.882057,50.077454 86.893333,49.896610 
	C86.034225,48.038841 85.482231,46.399418 84.930244,44.759987 
z"/>
<path fill="#9CD57A" opacity="1.000000" stroke="none" 
	d="
M87.200455,50.114952 
	C87.882057,50.077454 88.563667,50.039951 89.584457,49.973991 
	C90.378914,50.258446 90.834175,50.571358 91.577042,50.889267 
	C91.910934,52.335621 91.957214,53.776985 91.970146,55.650291 
	C91.598701,56.326256 91.260612,56.570282 90.436134,56.985008 
	C89.313385,57.161221 88.677025,57.166737 87.725983,57.097633 
	C86.894295,56.679234 86.377289,56.335449 85.885834,55.734608 
	C85.869614,55.310471 85.827843,55.143394 85.798882,54.662102 
	C85.792801,53.930244 85.773903,53.512608 85.860199,52.778667 
	C86.377083,51.679897 86.788773,50.897423 87.200455,50.114952 
z"/>
<path fill="#62AB5C" opacity="1.000000" stroke="none" 
	d="
M86.893333,49.896610 
	C86.788773,50.897423 86.377083,51.679897 85.531616,52.742298 
	C83.725891,51.678280 82.353966,50.334328 80.982033,48.990376 
	C80.998390,48.265282 81.014748,47.540188 81.017555,46.454147 
	C82.085350,45.700630 83.166710,45.308064 84.589157,44.837746 
	C85.482231,46.399418 86.034225,48.038841 86.893333,49.896610 
z"/>
<path fill="#77BB59" opacity="1.000000" stroke="none" 
	d="
M86.994171,38.626801 
	C82.515106,39.659054 80.105598,37.292976 78.209908,33.527988 
	C77.178841,31.480198 75.217117,29.900993 73.335403,27.806198 
	C72.995644,27.501961 72.996147,27.018942 72.996063,26.643929 
	C72.331970,25.178028 71.667969,24.087137 71.003967,22.996248 
	C71.004433,22.243031 71.004890,21.489815 71.009979,20.359531 
	C73.109169,20.961430 75.203720,21.940395 77.645195,22.964092 
	C80.214478,27.460117 80.745979,32.934006 85.854942,35.660690 
	C86.508514,36.009510 86.623726,37.367043 86.994171,38.626801 
z"/>
<path fill="#174F39" opacity="1.000000" stroke="none" 
	d="
M44.773308,79.997063 
	C45.156887,79.995583 45.326023,80.001617 45.748711,80.020630 
	C45.548611,80.659431 45.094959,81.285263 44.329243,81.963638 
	C44.017178,82.016197 44.004017,82.003853 43.967438,81.612503 
	C43.901241,80.963333 43.871624,80.705498 43.842003,80.447655 
	C44.024456,80.208549 44.263409,80.060852 44.773308,79.997063 
z"/>
<path fill="#7DC270" opacity="1.000000" stroke="none" 
	d="
M82.309860,67.353806 
	C81.978043,67.504372 81.686691,67.351044 81.179199,67.121216 
	C80.369118,66.865562 80.066536,66.839729 79.657074,66.480453 
	C80.019371,64.063057 80.488564,61.979099 81.279068,59.898380 
	C82.388954,59.589924 83.177521,59.278225 84.303551,58.982658 
	C85.091042,59.004475 85.541054,59.010166 85.986427,59.453590 
	C86.013329,61.939159 86.044876,63.987000 86.076416,66.034836 
	C84.931503,66.424301 83.786598,66.813766 82.309860,67.353806 
z"/>
<path fill="#609C6A" opacity="1.000000" stroke="none" 
	d="
M92.242294,60.809746 
	C93.972031,63.449100 95.701775,66.088455 97.162651,68.867531 
	C93.629875,68.261772 90.365952,67.516281 87.237808,66.132996 
	C90.001892,64.978119 92.380272,64.201324 92.242294,60.809746 
z"/>
<path fill="#4C9759" opacity="1.000000" stroke="none" 
	d="
M92.231400,60.828201 
	C92.380272,64.201324 90.001892,64.978119 87.120926,65.777771 
	C86.868279,66.060349 86.471878,66.039635 86.274147,66.037231 
	C86.044876,63.987000 86.013329,61.939159 86.294617,59.409889 
	C87.085182,58.343052 87.562920,57.757652 88.040665,57.172253 
	C88.677025,57.166737 89.313385,57.161221 90.255219,57.246346 
	C90.662933,57.706406 90.765167,58.075832 90.699097,58.920120 
	C91.084396,59.872887 91.638000,60.350788 92.191597,60.828693 
	C92.191597,60.828693 92.220512,60.846657 92.231400,60.828201 
z"/>
<path fill="#AADEC5" opacity="1.000000" stroke="none" 
	d="
M79.763954,66.813896 
	C80.066536,66.839729 80.369118,66.865562 81.121063,66.967209 
	C80.959221,69.380943 80.348015,71.718849 79.655060,74.442184 
	C79.349525,75.267982 79.125732,75.708359 78.619347,76.640533 
	C78.122772,78.028130 77.908791,78.923920 77.694809,79.819717 
	C77.694809,79.819717 77.631424,79.780830 77.593712,79.781342 
	C76.599014,81.519669 75.642029,83.257484 74.315445,84.643082 
	C73.999435,83.558105 74.053047,82.825356 74.091972,82.080276 
	C74.077293,82.067932 74.077751,82.093910 74.295898,81.896057 
	C74.637444,81.135384 74.760857,80.572556 74.968277,79.818306 
	C75.052292,79.626884 75.074150,79.209366 75.277344,79.073074 
	C75.715828,78.672043 75.796623,78.366470 75.840225,77.698517 
	C76.024315,76.926926 76.091095,76.476883 76.372284,75.820557 
	C76.768158,74.842461 76.949638,74.070641 77.338394,73.147507 
	C77.615417,72.670280 77.685173,72.344376 77.862297,71.733475 
	C78.023933,71.047340 78.078209,70.646194 78.359726,70.012299 
	C78.979309,68.790993 79.371628,67.802444 79.763954,66.813896 
z"/>
<path fill="#4B975E" opacity="1.000000" stroke="none" 
	d="
M74.119171,42.544044 
	C74.097725,43.739479 74.045532,44.582069 73.960373,45.845875 
	C69.866669,44.184055 65.805931,42.101017 61.363068,39.653084 
	C59.586201,36.470257 58.191452,33.652328 56.796700,30.834404 
	C57.642689,28.943148 58.488674,27.051891 59.723267,25.243305 
	C63.284500,29.534389 66.384872,33.801228 69.696671,37.897106 
	C70.289581,38.630383 71.756592,38.656879 72.820015,39.009712 
	C73.242813,40.070206 73.665619,41.130703 74.119171,42.544044 
z"/>
<path fill="#529D5B" opacity="1.000000" stroke="none" 
	d="
M72.769890,38.669746 
	C71.756592,38.656879 70.289581,38.630383 69.696671,37.897106 
	C66.384872,33.801228 63.284500,29.534389 59.947536,24.979334 
	C60.122257,23.622961 60.461315,22.613234 60.938904,21.309828 
	C62.549149,21.309408 64.020866,21.602663 65.877792,21.904781 
	C66.891945,23.345327 67.520897,24.777012 67.896698,26.776205 
	C66.576073,30.267727 66.862213,32.445683 70.605682,32.718113 
	C71.310371,34.588673 72.015068,36.459229 72.769890,38.669746 
z"/>
<path fill="#63A065" opacity="1.000000" stroke="none" 
	d="
M70.511765,32.373413 
	C66.862213,32.445683 66.576073,30.267727 67.949043,27.116810 
	C68.975639,28.602840 69.696747,30.315777 70.511765,32.373413 
z"/>
<path fill="#6EAF5C" opacity="1.000000" stroke="none" 
	d="
M71.001862,22.998268 
	C71.667969,24.087137 72.331970,25.178028 72.684380,26.636826 
	C71.957680,26.993235 71.542572,26.981733 71.127464,26.970232 
	C71.127464,26.970232 70.970299,26.590309 70.968529,25.988735 
	C70.976418,24.592947 70.986069,23.798731 70.995728,23.004515 
	C70.995728,23.004515 70.999756,23.000286 71.001862,22.998268 
z"/>
<path fill="#7FB06C" opacity="1.000000" stroke="none" 
	d="
M71.141861,27.303150 
	C71.542572,26.981733 71.957680,26.993235 72.684464,27.011837 
	C72.996147,27.018942 72.995644,27.501961 72.996140,27.743279 
	C72.986038,28.784731 72.975441,29.584866 72.931107,30.786043 
	C72.317009,30.003412 71.736626,28.819738 71.141861,27.303150 
z"/>
<path fill="#7FB06C" opacity="1.000000" stroke="none" 
	d="
M70.688629,23.045876 
	C70.986069,23.798731 70.976418,24.592947 70.935257,25.785873 
	C70.544083,25.420036 70.184395,24.655487 69.804657,23.572395 
	C69.983574,23.198313 70.182549,23.142775 70.688629,23.045876 
z"/>
<path fill="#7FB06C" opacity="1.000000" stroke="none" 
	d="
M69.039467,22.246300 
	C69.231552,22.209623 69.479889,22.425621 69.794281,22.884007 
	C69.605469,22.917255 69.350586,22.708113 69.039467,22.246300 
z"/>
<path fill="#77BD79" opacity="1.000000" stroke="none" 
	d="
M56.513405,30.819382 
	C58.191452,33.652328 59.586201,36.470257 60.995785,39.589478 
	C60.637905,39.986767 60.265194,40.082760 59.371181,39.921005 
	C57.246559,39.492771 55.643230,39.322285 53.703239,39.129128 
	C52.918903,39.062832 52.471226,39.019207 51.991982,38.608727 
	C51.254818,37.423386 50.549229,36.604893 49.891998,35.444756 
	C49.950619,34.414814 49.960880,33.726521 49.971138,33.038223 
	C49.971138,33.038223 50.066616,32.567245 50.130966,32.336273 
	C50.512749,31.989723 50.784382,31.806303 51.456123,31.291351 
	C52.888180,30.646910 53.874321,30.266155 54.860466,29.885399 
	C55.317013,30.191719 55.773556,30.498039 56.513405,30.819382 
z"/>
<path fill="#3A8F5A" opacity="1.000000" stroke="none" 
	d="
M54.936134,29.539009 
	C53.874321,30.266155 52.888180,30.646910 51.593544,31.084148 
	C49.885792,28.668810 48.486526,26.196987 47.040443,23.372261 
	C47.804314,22.761478 48.615005,22.503599 49.722912,22.117428 
	C51.920170,22.913469 53.820213,23.837803 56.052528,24.954929 
	C55.927135,26.496021 55.469467,27.844318 54.936134,29.539009 
z"/>
<path fill="#1E4A38" opacity="1.000000" stroke="none" 
	d="
M27.050901,70.448288 
	C28.911655,69.520287 30.757385,69.032669 32.806580,69.130096 
	C33.024967,70.179649 33.039890,70.644173 33.054810,71.108688 
	C31.899822,73.277603 30.744833,75.446526 29.317745,77.803146 
	C28.530924,78.333527 28.016199,78.676208 27.035879,79.328873 
	C27.035879,76.285599 27.035879,73.587135 27.050901,70.448288 
z"/>
<path fill="#B0D7C5" opacity="1.000000" stroke="none" 
	d="
M49.506775,33.003090 
	C49.960880,33.726521 49.950619,34.414814 49.583717,35.508686 
	C48.813324,35.984455 48.399574,36.054649 47.525871,36.074352 
	C42.428093,36.361225 37.790268,36.698597 32.811638,37.035988 
	C32.243809,37.045200 32.016788,37.054386 31.485085,37.061848 
	C30.781704,36.992081 30.383009,36.924034 29.984314,36.855988 
	C29.989231,35.874203 29.994146,34.892418 30.003126,33.543110 
	C36.352264,33.106380 42.697338,33.037170 49.506775,33.003090 
z"/>
<path fill="#73A071" opacity="1.000000" stroke="none" 
	d="
M95.922646,60.730789 
	C95.248260,60.298222 94.601280,59.495941 93.880997,58.384399 
	C94.521812,58.837116 95.235931,59.599091 95.922646,60.730789 
z"/>
<path fill="#73A071" opacity="1.000000" stroke="none" 
	d="
M97.910324,63.740669 
	C97.238953,63.312401 96.598579,62.518463 95.911194,61.414082 
	C96.556557,61.860760 97.248940,62.617878 97.910324,63.740669 
z"/>
<path fill="#3C765E" opacity="1.000000" stroke="none" 
	d="
M78.026146,79.653648 
	C77.908791,78.923920 78.122772,78.028130 78.586578,76.889587 
	C78.676765,77.593750 78.517120,78.540665 78.026146,79.653648 
z"/>
<path fill="#2C6D52" opacity="1.000000" stroke="none" 
	d="
M74.106651,82.092613 
	C74.053047,82.825356 73.999435,83.558105 73.970291,84.657906 
	C73.994751,85.024963 73.987686,85.507309 73.993393,85.748291 
	C72.997971,85.991905 71.996841,85.994537 70.620911,85.995232 
	C69.777794,85.319229 69.309494,84.645172 68.555534,83.837158 
	C68.184525,83.380791 68.014503,83.111900 67.550034,82.776939 
	C67.218033,82.341057 67.012695,82.093796 66.499374,81.819885 
	C66.183739,81.398911 66.008034,81.128853 65.532784,80.796822 
	C65.192314,80.362167 64.980042,80.120728 64.454491,79.863068 
	C63.451881,78.832977 62.676140,77.895081 62.136967,76.585724 
	C63.338036,76.650604 64.321159,77.050369 65.263588,77.530083 
	C68.219513,79.034744 71.160118,80.569511 74.106651,82.092613 
z"/>
<path fill="#174F39" opacity="1.000000" stroke="none" 
	d="
M38.859928,67.512459 
	C39.318218,66.571922 39.776505,65.631386 40.548584,64.925797 
	C42.578655,68.441017 44.294930,71.721298 46.011208,75.001572 
	C45.096909,75.826485 44.182610,76.651398 43.132721,77.759537 
	C42.997131,78.042770 42.836456,78.226601 42.289047,78.133865 
	C39.304333,76.927788 35.209538,77.689880 35.978943,72.948151 
	C36.012703,72.778503 36.046467,72.608849 36.333794,72.006363 
	C36.728497,71.050934 36.869644,70.528343 37.360027,69.931976 
	C38.092819,69.076286 38.476372,68.294373 38.859928,67.512459 
z"/>
<path fill="#244636" opacity="1.000000" stroke="none" 
	d="
M35.699558,73.171646 
	C35.209538,77.689880 39.304333,76.927788 42.168999,78.111710 
	C38.681725,80.425056 34.767094,82.667824 30.574432,85.108917 
	C30.007792,85.336761 29.740032,85.427689 29.280117,85.584511 
	C29.640472,80.719788 32.068333,76.816757 35.699558,73.171646 
z"/>
<path fill="#244636" opacity="1.000000" stroke="none" 
	d="
M37.010788,70.005745 
	C36.869644,70.528343 36.728497,71.050934 36.384361,71.751862 
	C35.365513,71.632233 34.549660,71.334274 33.394310,71.072502 
	C33.039890,70.644173 33.024967,70.179649 33.012100,69.367767 
	C33.798325,68.699387 34.582493,68.378372 35.684387,68.026489 
	C36.002113,67.995628 35.999996,67.997421 36.026138,68.290771 
	C36.371784,69.057991 36.691288,69.531868 37.010788,70.005745 
z"/>
<path fill="#609C6A" opacity="1.000000" stroke="none" 
	d="
M92.142410,60.542698 
	C91.638000,60.350788 91.084396,59.872887 90.742950,59.205170 
	C91.334473,59.429142 91.713852,59.842922 92.142410,60.542698 
z"/>
<path fill="#40614E" opacity="1.000000" stroke="none" 
	d="
M29.729652,36.950073 
	C30.383009,36.924034 30.781704,36.992081 31.512190,37.391167 
	C31.779224,38.154915 31.714470,38.587624 31.649712,39.020329 
	C30.791454,38.629116 29.933195,38.237904 29.022003,37.543991 
	C29.137712,37.175583 29.306353,37.109875 29.729652,36.950073 
z"/>
<path fill="#1A4032" opacity="1.000000" stroke="none" 
	d="
M43.511692,80.577438 
	C43.871624,80.705498 43.901241,80.963333 43.963783,81.609024 
	C43.429653,81.978149 42.862606,81.959412 41.868816,81.915390 
	C42.021843,81.495811 42.601612,81.101517 43.511692,80.577438 
z"/>
<path fill="#165F43" opacity="1.000000" stroke="none" 
	d="
M46.254166,74.994995 
	C44.294930,71.721298 42.578655,68.441017 40.795448,64.722183 
	C42.593029,60.772823 44.457539,57.262032 46.654781,53.358170 
	C47.973057,52.648144 48.958599,52.331188 49.944138,52.014233 
	C49.950340,53.721054 49.956539,55.427876 49.769043,57.653740 
	C49.673973,58.455048 49.772598,58.737305 49.871223,59.019566 
	C49.899929,62.822815 49.928631,66.626060 49.688042,70.573105 
	C48.955978,70.880592 48.199287,70.929054 48.082016,71.228195 
	C47.608536,72.435989 47.332218,73.721069 46.983105,74.977615 
	C46.983105,74.977615 46.497124,74.988419 46.254166,74.994995 
z"/>
<path fill="#186C4B" opacity="1.000000" stroke="none" 
	d="
M74.091972,82.080276 
	C71.160118,80.569511 68.219513,79.034744 65.263588,77.530083 
	C64.321159,77.050369 63.338036,76.650604 61.993027,76.314301 
	C61.612526,76.414345 61.626896,76.380493 61.704388,76.005539 
	C59.542641,71.818390 64.828949,71.712830 65.003586,69.089577 
	C65.827728,68.501678 66.651863,67.913788 67.788345,67.696320 
	C68.665398,72.867004 71.076134,75.798714 76.157883,76.026840 
	C76.091095,76.476883 76.024315,76.926926 75.664062,77.854248 
	C75.166687,78.588646 75.067879,78.881256 75.074150,79.209366 
	C75.074150,79.209366 75.052292,79.626884 74.748108,80.015091 
	C74.321861,80.966843 74.199806,81.530373 74.077759,82.093910 
	C74.077751,82.093910 74.077293,82.067932 74.091972,82.080276 
z"/>
<path fill="#207A53" opacity="1.000000" stroke="none" 
	d="
M76.372276,75.820557 
	C71.076134,75.798714 68.665398,72.867004 68.166229,67.632332 
	C68.890640,66.779251 69.549515,66.360580 70.795288,66.046188 
	C73.632278,67.515327 75.882378,68.880188 78.132477,70.245049 
	C78.078209,70.646194 78.023933,71.047340 77.678589,71.901024 
	C77.176437,72.634537 77.090973,72.949623 77.131119,73.298820 
	C76.949638,74.070641 76.768158,74.842461 76.372276,75.820557 
z"/>
<path fill="#4D9669" opacity="1.000000" stroke="none" 
	d="
M50.251587,51.840820 
	C48.958599,52.331188 47.973057,52.648144 46.673515,52.978588 
	C46.124847,52.966320 45.890186,52.940567 45.338123,52.570026 
	C45.002262,50.332207 44.983803,48.439178 45.134037,46.326035 
	C45.131832,45.452347 44.960930,44.798771 45.174892,44.133812 
	C46.711143,43.753258 47.862537,43.384094 49.340767,42.946701 
	C50.452923,41.577503 51.238235,40.276539 52.023552,38.975578 
	C52.471226,39.019207 52.918903,39.062832 53.536217,39.433411 
	C53.513760,41.863609 53.321663,43.966854 53.129566,46.070095 
	C52.272720,47.935863 51.415874,49.801636 50.251587,51.840820 
z"/>
<path fill="#38865A" opacity="1.000000" stroke="none" 
	d="
M78.359726,70.012299 
	C75.882378,68.880188 73.632278,67.515327 71.031784,65.977707 
	C75.332939,63.631634 78.093605,60.377892 77.297035,54.611526 
	C78.765633,56.194599 79.861687,58.044872 80.957748,59.895142 
	C80.488564,61.979099 80.019371,64.063057 79.657074,66.480453 
	C79.371628,67.802444 78.979309,68.790993 78.359726,70.012299 
z"/>
<path fill="#479456" opacity="1.000000" stroke="none" 
	d="
M81.279068,59.898384 
	C79.861687,58.044872 78.765633,56.194599 77.376297,54.185974 
	C76.998993,53.279579 76.914948,52.531532 76.839951,51.405457 
	C78.033226,50.450348 79.217453,49.873268 80.691864,49.143280 
	C82.353966,50.334328 83.725891,51.678280 85.426414,53.058598 
	C85.773903,53.512608 85.792801,53.930244 85.626312,54.795666 
	C85.232422,55.458828 85.081581,55.709003 84.859619,56.284771 
	C84.475906,57.372559 84.220993,58.169544 83.966080,58.966530 
	C83.177521,59.278225 82.388954,59.589924 81.279068,59.898384 
z"/>
<path fill="#377F59" opacity="1.000000" stroke="none" 
	d="
M53.442085,45.952835 
	C53.321663,43.966854 53.513760,41.863609 53.872879,39.456085 
	C55.643230,39.322285 57.246559,39.492771 59.081245,39.918510 
	C59.210205,40.582653 59.107803,40.991543 58.995834,41.713272 
	C58.986267,42.026112 58.969631,41.969719 58.969631,41.969719 
	C57.231289,43.258339 55.492947,44.546955 53.442085,45.952835 
z"/>
<path fill="#2C6D52" opacity="1.000000" stroke="none" 
	d="
M64.646736,69.071991 
	C64.828949,71.712830 59.542641,71.818390 61.693710,75.992065 
	C60.646191,75.622261 59.686836,74.890984 58.432198,74.070625 
	C60.187904,72.339165 62.238895,70.696793 64.646736,69.071991 
z"/>
<path fill="#174F39" opacity="1.000000" stroke="none" 
	d="
M47.152481,75.217270 
	C47.332218,73.721069 47.608536,72.435989 48.082016,71.228195 
	C48.199287,70.929054 48.955978,70.880592 49.576004,71.046844 
	C49.533638,72.687004 49.334019,73.997215 49.041962,75.663956 
	C48.406971,75.832626 47.864414,75.644775 47.152481,75.217270 
z"/>
<path fill="#77BD79" opacity="1.000000" stroke="none" 
	d="
M58.956535,42.028671 
	C59.092304,42.146526 59.257805,42.261818 59.423302,42.377110 
	C59.316296,42.343109 59.209290,42.309113 59.035957,42.122417 
	C58.969631,41.969719 58.986267,42.026112 58.956535,42.028671 
z"/>
<path fill="#4D9669" opacity="1.000000" stroke="none" 
	d="
M49.961514,58.760643 
	C49.772598,58.737305 49.673973,58.455048 49.724144,58.078026 
	C49.932560,58.156086 49.992184,58.328899 49.961514,58.760643 
z"/>
<path fill="#186F4E" opacity="1.000000" stroke="none" 
	d="
M44.965343,46.546150 
	C44.983803,48.439178 45.002262,50.332207 44.985039,52.543144 
	C44.490349,53.460632 44.031338,54.060215 43.340584,54.825127 
	C38.575016,54.308197 32.837135,49.715546 32.281982,45.732220 
	C32.123165,44.592709 33.792019,43.198479 35.362705,41.921467 
	C39.056839,43.463306 42.011093,45.004726 44.965343,46.546150 
z"/>
<path fill="#B4E6D0" opacity="1.000000" stroke="none" 
	d="
M45.134037,46.326035 
	C42.011093,45.004726 39.056839,43.463306 35.770592,41.869522 
	C34.287544,41.086781 33.136497,40.356407 31.817583,39.323181 
	C31.714470,38.587624 31.779224,38.154915 31.816875,37.392891 
	C32.016788,37.054386 32.243809,37.045200 32.890530,37.369892 
	C37.136833,39.850914 40.963432,41.998055 44.790031,44.145199 
	C44.960930,44.798771 45.131832,45.452347 45.134037,46.326035 
z"/>
<path fill="#1E4A38" opacity="1.000000" stroke="none" 
	d="
M37.360023,69.931976 
	C36.691288,69.531868 36.371784,69.057991 36.028885,68.286118 
	C36.733639,67.938545 37.461792,67.888962 38.524933,67.675919 
	C38.476372,68.294373 38.092819,69.076286 37.360023,69.931976 
z"/>
<path fill="#609C6A" opacity="1.000000" stroke="none" 
	d="
M84.303551,58.982658 
	C84.220993,58.169544 84.475906,57.372559 85.077637,56.285664 
	C85.424461,55.995754 85.860283,55.991669 85.860283,55.991669 
	C86.377289,56.335449 86.894295,56.679234 87.725983,57.097633 
	C87.562920,57.757652 87.085182,58.343052 86.299255,58.972157 
	C85.541054,59.010166 85.091042,59.004475 84.303551,58.982658 
z"/>
<path fill="#62AB5C" opacity="1.000000" stroke="none" 
	d="
M85.885834,55.734608 
	C85.860283,55.991669 85.424461,55.995754 85.206436,55.994862 
	C85.081581,55.709003 85.232422,55.458828 85.613495,55.109879 
	C85.827843,55.143394 85.869614,55.310471 85.885834,55.734608 
z"/>
<path fill="#2C6D52" opacity="1.000000" stroke="none" 
	d="
M74.295898,81.896057 
	C74.199806,81.530373 74.321861,80.966843 74.664093,80.206512 
	C74.760857,80.572556 74.637444,81.135384 74.295898,81.896057 
z"/>
<path fill="#2C6D52" opacity="1.000000" stroke="none" 
	d="
M75.277344,79.073074 
	C75.067879,78.881256 75.166687,78.588646 75.546753,78.175797 
	C75.796623,78.366470 75.715828,78.672043 75.277344,79.073074 
z"/>
<path fill="#38865A" opacity="1.000000" stroke="none" 
	d="
M77.338387,73.147507 
	C77.090973,72.949623 77.176437,72.634537 77.571220,72.186012 
	C77.685173,72.344376 77.615417,72.670280 77.338387,73.147507 
z"/>
<path fill="#377F59" opacity="1.000000" stroke="none" 
	d="
M51.991978,38.608727 
	C51.238235,40.276539 50.452923,41.577503 49.338860,42.551270 
	C48.668682,40.190998 48.327251,38.157925 47.985821,36.124847 
	C48.399574,36.054649 48.813324,35.984455 49.535358,35.850327 
	C50.549229,36.604893 51.254818,37.423386 51.991978,38.608727 
z"/>
<path fill="#217854" opacity="1.000000" stroke="none" 
	d="
M47.525871,36.074352 
	C48.327251,38.157925 48.668682,40.190998 49.012016,42.619503 
	C47.862537,43.384094 46.711143,43.753258 45.174892,44.133812 
	C40.963432,41.998055 37.136833,39.850914 33.231339,37.369873 
	C37.790268,36.698597 42.428093,36.361225 47.525871,36.074352 
z"/>
</svg>